<mxfile host="app.diagrams.net" agent="Mozilla/5.0 (Windows NT 10.0; Win64; x64) AppleWebKit/537.36 (KHTML, like Gecko) Chrome/132.0.0.0 Safari/537.36" version="26.0.12">
  <diagram name="Page-1" id="UjU-CnhyNtKwWSKgRozL">
    <mxGraphModel dx="502" dy="491" grid="1" gridSize="10" guides="1" tooltips="1" connect="1" arrows="1" fold="1" page="1" pageScale="1" pageWidth="850" pageHeight="1100" math="0" shadow="0">
      <root>
        <mxCell id="0" />
        <mxCell id="1" parent="0" />
        <mxCell id="I0Gq1rQEQowEETYzcOps-1" value="Department" style="rounded=0;whiteSpace=wrap;html=1;" vertex="1" parent="1">
          <mxGeometry x="200" y="120" width="120" height="60" as="geometry" />
        </mxCell>
        <mxCell id="I0Gq1rQEQowEETYzcOps-2" value="" style="endArrow=none;html=1;rounded=0;exitX=1;exitY=0.5;exitDx=0;exitDy=0;" edge="1" parent="1" source="I0Gq1rQEQowEETYzcOps-22" target="I0Gq1rQEQowEETYzcOps-3">
          <mxGeometry width="50" height="50" relative="1" as="geometry">
            <mxPoint x="240" y="280" as="sourcePoint" />
            <mxPoint x="290" y="230" as="targetPoint" />
          </mxGeometry>
        </mxCell>
        <mxCell id="I0Gq1rQEQowEETYzcOps-3" value="Employees" style="rounded=0;whiteSpace=wrap;html=1;" vertex="1" parent="1">
          <mxGeometry x="390" y="120" width="120" height="60" as="geometry" />
        </mxCell>
        <mxCell id="I0Gq1rQEQowEETYzcOps-4" value="1" style="text;html=1;align=center;verticalAlign=middle;whiteSpace=wrap;rounded=0;" vertex="1" parent="1">
          <mxGeometry x="320" y="125" width="20" height="20" as="geometry" />
        </mxCell>
        <mxCell id="I0Gq1rQEQowEETYzcOps-5" value="M" style="text;html=1;align=center;verticalAlign=middle;whiteSpace=wrap;rounded=0;" vertex="1" parent="1">
          <mxGeometry x="370" y="120" width="20" height="30" as="geometry" />
        </mxCell>
        <mxCell id="I0Gq1rQEQowEETYzcOps-6" value="Division" style="rounded=0;whiteSpace=wrap;html=1;" vertex="1" parent="1">
          <mxGeometry x="200" y="250" width="120" height="60" as="geometry" />
        </mxCell>
        <mxCell id="I0Gq1rQEQowEETYzcOps-7" value="" style="endArrow=none;html=1;rounded=0;entryX=0.5;entryY=1;entryDx=0;entryDy=0;exitX=0.5;exitY=0;exitDx=0;exitDy=0;" edge="1" parent="1" source="I0Gq1rQEQowEETYzcOps-24" target="I0Gq1rQEQowEETYzcOps-1">
          <mxGeometry width="50" height="50" relative="1" as="geometry">
            <mxPoint x="240" y="280" as="sourcePoint" />
            <mxPoint x="290" y="230" as="targetPoint" />
          </mxGeometry>
        </mxCell>
        <mxCell id="I0Gq1rQEQowEETYzcOps-9" value="M" style="text;html=1;align=center;verticalAlign=middle;whiteSpace=wrap;rounded=0;" vertex="1" parent="1">
          <mxGeometry x="240" y="180" width="20" height="20" as="geometry" />
        </mxCell>
        <mxCell id="I0Gq1rQEQowEETYzcOps-10" value="Projects" style="rounded=0;whiteSpace=wrap;html=1;" vertex="1" parent="1">
          <mxGeometry x="390" y="250" width="120" height="60" as="geometry" />
        </mxCell>
        <mxCell id="I0Gq1rQEQowEETYzcOps-11" value="" style="endArrow=none;html=1;rounded=0;entryX=0.5;entryY=1;entryDx=0;entryDy=0;exitX=0.5;exitY=0;exitDx=0;exitDy=0;" edge="1" parent="1" target="I0Gq1rQEQowEETYzcOps-3">
          <mxGeometry width="50" height="50" relative="1" as="geometry">
            <mxPoint x="440" y="180" as="sourcePoint" />
            <mxPoint x="290" y="230" as="targetPoint" />
          </mxGeometry>
        </mxCell>
        <mxCell id="I0Gq1rQEQowEETYzcOps-14" value="M" style="text;html=1;align=center;verticalAlign=middle;whiteSpace=wrap;rounded=0;" vertex="1" parent="1">
          <mxGeometry x="410" y="225" width="60" height="30" as="geometry" />
        </mxCell>
        <mxCell id="I0Gq1rQEQowEETYzcOps-15" value="" style="endArrow=none;html=1;rounded=0;exitX=1;exitY=0;exitDx=0;exitDy=0;" edge="1" parent="1" source="I0Gq1rQEQowEETYzcOps-6">
          <mxGeometry width="50" height="50" relative="1" as="geometry">
            <mxPoint x="340" y="230" as="sourcePoint" />
            <mxPoint x="390" y="180" as="targetPoint" />
          </mxGeometry>
        </mxCell>
        <mxCell id="I0Gq1rQEQowEETYzcOps-36" value="Text" style="edgeLabel;html=1;align=center;verticalAlign=middle;resizable=0;points=[];" vertex="1" connectable="0" parent="I0Gq1rQEQowEETYzcOps-15">
          <mxGeometry x="0.1619" relative="1" as="geometry">
            <mxPoint x="-1" as="offset" />
          </mxGeometry>
        </mxCell>
        <mxCell id="I0Gq1rQEQowEETYzcOps-18" value="1" style="text;html=1;align=center;verticalAlign=middle;whiteSpace=wrap;rounded=0;" vertex="1" parent="1">
          <mxGeometry x="375" y="170" width="10" height="20" as="geometry" />
        </mxCell>
        <mxCell id="I0Gq1rQEQowEETYzcOps-19" value="1" style="text;html=1;align=center;verticalAlign=middle;whiteSpace=wrap;rounded=0;" vertex="1" parent="1">
          <mxGeometry x="300" y="230" width="20" height="20" as="geometry" />
        </mxCell>
        <mxCell id="I0Gq1rQEQowEETYzcOps-23" value="" style="endArrow=none;html=1;rounded=0;exitX=1;exitY=0.5;exitDx=0;exitDy=0;" edge="1" parent="1" source="I0Gq1rQEQowEETYzcOps-1" target="I0Gq1rQEQowEETYzcOps-22">
          <mxGeometry width="50" height="50" relative="1" as="geometry">
            <mxPoint x="320" y="150" as="sourcePoint" />
            <mxPoint x="390" y="150" as="targetPoint" />
          </mxGeometry>
        </mxCell>
        <mxCell id="I0Gq1rQEQowEETYzcOps-22" value="&lt;font style=&quot;font-size: 9px;&quot;&gt;Employs&lt;/font&gt;" style="rhombus;whiteSpace=wrap;html=1;" vertex="1" parent="1">
          <mxGeometry x="330" y="130" width="50" height="40" as="geometry" />
        </mxCell>
        <mxCell id="I0Gq1rQEQowEETYzcOps-25" value="" style="endArrow=none;html=1;rounded=0;entryX=0.5;entryY=1;entryDx=0;entryDy=0;exitX=0.5;exitY=0;exitDx=0;exitDy=0;" edge="1" parent="1" source="I0Gq1rQEQowEETYzcOps-6" target="I0Gq1rQEQowEETYzcOps-24">
          <mxGeometry width="50" height="50" relative="1" as="geometry">
            <mxPoint x="260" y="250" as="sourcePoint" />
            <mxPoint x="260" y="180" as="targetPoint" />
          </mxGeometry>
        </mxCell>
        <mxCell id="I0Gq1rQEQowEETYzcOps-24" value="&lt;font style=&quot;font-size: 10px;&quot;&gt;Operates&lt;/font&gt;" style="rhombus;whiteSpace=wrap;html=1;" vertex="1" parent="1">
          <mxGeometry x="235" y="190" width="50" height="50" as="geometry" />
        </mxCell>
        <mxCell id="I0Gq1rQEQowEETYzcOps-29" value="" style="endArrow=none;html=1;rounded=0;" edge="1" parent="1">
          <mxGeometry width="50" height="50" relative="1" as="geometry">
            <mxPoint x="450" y="250" as="sourcePoint" />
            <mxPoint x="450" y="180" as="targetPoint" />
          </mxGeometry>
        </mxCell>
        <mxCell id="I0Gq1rQEQowEETYzcOps-27" value="&lt;font style=&quot;font-size: 9px;&quot;&gt;Assigns&lt;/font&gt;" style="rhombus;whiteSpace=wrap;html=1;" vertex="1" parent="1">
          <mxGeometry x="425" y="192.5" width="50" height="45" as="geometry" />
        </mxCell>
        <mxCell id="I0Gq1rQEQowEETYzcOps-30" value="M" style="text;html=1;align=center;verticalAlign=middle;whiteSpace=wrap;rounded=0;" vertex="1" parent="1">
          <mxGeometry x="425" y="182.5" width="30" height="15" as="geometry" />
        </mxCell>
        <mxCell id="I0Gq1rQEQowEETYzcOps-32" value="1" style="text;html=1;align=center;verticalAlign=middle;whiteSpace=wrap;rounded=0;" vertex="1" parent="1">
          <mxGeometry x="235" y="230" width="20" height="20" as="geometry" />
        </mxCell>
        <mxCell id="I0Gq1rQEQowEETYzcOps-34" value="&lt;font style=&quot;font-size: 9px;&quot;&gt;Runs&lt;/font&gt;" style="rhombus;whiteSpace=wrap;html=1;rotation=45;" vertex="1" parent="1">
          <mxGeometry x="330" y="187.5" width="50" height="50" as="geometry" />
        </mxCell>
        <mxCell id="I0Gq1rQEQowEETYzcOps-38" value="&lt;font style=&quot;font-size: 9px;&quot;&gt;Manages&lt;/font&gt;" style="rhombus;whiteSpace=wrap;html=1;" vertex="1" parent="1">
          <mxGeometry x="330" y="60" width="52.5" height="40" as="geometry" />
        </mxCell>
        <mxCell id="I0Gq1rQEQowEETYzcOps-39" value="" style="endArrow=none;html=1;rounded=0;entryX=0;entryY=0.5;entryDx=0;entryDy=0;exitX=0.5;exitY=0;exitDx=0;exitDy=0;" edge="1" parent="1" source="I0Gq1rQEQowEETYzcOps-1" target="I0Gq1rQEQowEETYzcOps-38">
          <mxGeometry width="50" height="50" relative="1" as="geometry">
            <mxPoint x="277.5" y="120" as="sourcePoint" />
            <mxPoint x="327.5" y="70" as="targetPoint" />
          </mxGeometry>
        </mxCell>
        <mxCell id="I0Gq1rQEQowEETYzcOps-40" value="" style="endArrow=none;html=1;rounded=0;entryX=1;entryY=0.5;entryDx=0;entryDy=0;exitX=0.5;exitY=0;exitDx=0;exitDy=0;" edge="1" parent="1" source="I0Gq1rQEQowEETYzcOps-3" target="I0Gq1rQEQowEETYzcOps-38">
          <mxGeometry width="50" height="50" relative="1" as="geometry">
            <mxPoint x="450" y="120" as="sourcePoint" />
            <mxPoint x="500" y="70" as="targetPoint" />
          </mxGeometry>
        </mxCell>
      </root>
    </mxGraphModel>
  </diagram>
</mxfile>
